<?xml version="1.0" encoding="utf-8"?>
<!-- Generator: Adobe Illustrator 22.0.1, SVG Export Plug-In . SVG Version: 6.00 Build 0)  -->
<svg version="1.1" id="Layer_1" xmlns="http://www.w3.org/2000/svg" xmlns:xlink="http://www.w3.org/1999/xlink" x="0px" y="0px"
	 viewBox="0 0 32.1 26.1" style="enable-background:new 0 0 32.1 26.1;" xml:space="preserve">
<style type="text/css">
	.st0{fill:#9B938A;}
</style>
<path class="st0" d="M24.4,6.8h-3.7V4.3c0-0.7-0.6-1.2-1.2-1.2H12c-0.7,0-1.2,0.6-1.2,1.2v2.5H7.1C6.4,6.8,6,7.3,6,8v13.5
	c0,0.7,0.5,1.2,1.2,1.2h17.3c0.7,0,1.2-0.6,1.2-1.2V8C25.6,7.3,25.1,6.8,24.4,6.8z M12.1,4.3h7.4v2.5h-7.4V4.3z M24.4,21.5H7.2v-7.4
	l7.4,2.1v0.4c0,0.7,0.6,1.2,1.2,1.2c0.7,0,1.2-0.6,1.2-1.2v-0.4l7.4-2.1V21.5z M24.4,12.9l-8.6,2.5l-8.6-2.5V8h4.3h1.2h7.4h1.2h3.1
	V12.9z"/>
</svg>
