<svg xmlns="http://www.w3.org/2000/svg" viewBox="0 0 300 230.66"><defs><style>.cls-1{fill:#ccaa14;}</style></defs><g id="Layer_3" data-name="Layer 3"><path class="cls-1" d="M150,154.75a74.09,74.09,0,1,1,74.09-74.08A74.17,74.17,0,0,1,150,154.75ZM150,9.87a70.8,70.8,0,1,0,70.79,70.8A70.87,70.87,0,0,0,150,9.87Z"/><path class="cls-1" d="M184.68,118.26h-71.9a1.64,1.64,0,0,1-1.64-1.65V44.72a1.65,1.65,0,1,1,3.29,0V115h70.25a1.65,1.65,0,0,1,0,3.29Z"/><path class="cls-1" d="M136.78,106.57H124.64a1.64,1.64,0,0,1-1.64-1.65v-17a1.64,1.64,0,0,1,1.64-1.65h12.14a1.65,1.65,0,0,1,1.65,1.65v17a1.65,1.65,0,0,1-1.65,1.65Zm-10.49-3.29h8.85V89.56h-8.85v13.72Z"/><path class="cls-1" d="M183.72,106.57H171.57a1.65,1.65,0,0,1-1.65-1.65V44.72a1.65,1.65,0,0,1,1.65-1.65h12.15a1.64,1.64,0,0,1,1.64,1.65v60.2a1.64,1.64,0,0,1-1.64,1.65Zm-10.5-3.29h8.85V46.36h-8.85v56.92Z"/><path class="cls-1" d="M160.25,106.57H148.1a1.64,1.64,0,0,1-1.64-1.65V66.78a1.64,1.64,0,0,1,1.64-1.65h12.15a1.65,1.65,0,0,1,1.65,1.65v38.14a1.65,1.65,0,0,1-1.65,1.65Zm-10.5-3.29h8.85V68.43h-8.85v34.85Z"/></g></svg>